<svg width="95" height="95" viewBox="0 0 95 95" fill="none" xmlns="http://www.w3.org/2000/svg">
<path d="M27.4341 47.0769C27.4341 57.9085 36.2454 66.7197 47.077 66.7197C57.9086 66.7197 66.7198 57.9085 66.7198 47.0769C66.7198 36.2453 57.9086 27.4341 47.077 27.4341C36.2454 27.4341 27.4341 36.2453 27.4341 47.0769ZM47.077 35.2802C53.5815 35.2802 58.8737 40.5724 58.8737 47.0769C58.8737 53.5814 53.5815 58.8736 47.077 58.8736C40.5725 58.8736 35.2803 53.5814 35.2803 47.0769C35.2803 40.5724 40.5725 35.2802 47.077 35.2802ZM43.1461 74.5384H50.9922V86.3077H43.1461V74.5384ZM43.1461 7.84613H50.9922V19.6154H43.1461V7.84613ZM7.83838 43.1538H19.6076V51H7.83838V43.1538ZM74.5307 43.1538H86.2999V51H74.5307V43.1538ZM16.5515 72.0394L24.8685 63.7147L30.4196 69.2619L22.1027 77.5867L16.5515 72.0394ZM63.7108 24.888L72.0356 16.5632L77.5828 22.1104L69.2581 30.4352L63.7108 24.888ZM24.8802 30.4391L16.5555 22.1144L22.1066 16.5671L30.4235 24.8919L24.8802 30.4391ZM77.5828 72.0434L72.0356 77.5906L63.7108 69.2658L69.2581 63.7186L77.5828 72.0434Z" fill="#F39C12"/>
</svg>
